<svg xmlns="http://www.w3.org/2000/svg" viewBox="0 0 128 128" width="128" height="128" role="img" aria-label="Finance Mosaix logo"><metadata><rdf:RDF xmlns:rdf="http://www.w3.org/1999/02/22-rdf-syntax-ns#" xmlns:dc="http://purl.org/dc/elements/1.1/"><rdf:Description><dc:creator>RealFaviconGenerator</dc:creator><dc:source>https://realfavicongenerator.net</dc:source></rdf:Description></rdf:RDF></metadata><defs>
    <linearGradient id="fm-bg" x1="0%" y1="0%" x2="100%" y2="100%">
      <stop offset="0%" stop-color="#1e3a5f"></stop>
      <stop offset="100%" stop-color="#0f2138"></stop>
    </linearGradient>
    <linearGradient id="fm-accent" x1="0%" y1="100%" x2="0%" y2="0%">
      <stop offset="0%" stop-color="#2fd18f"></stop>
      <stop offset="100%" stop-color="#7ee8b8"></stop>
    </linearGradient>
  </defs><rect x="4" y="4" width="120" height="120" rx="24" fill="url(#fm-bg)"></rect><g opacity="0.55">
    <rect x="16" y="16" width="20" height="20" rx="3" fill="#3f6a94"></rect>
    <rect x="40" y="16" width="20" height="20" rx="3" fill="#345a80"></rect>
    <rect x="16" y="40" width="20" height="20" rx="3" fill="#345a80"></rect>
    <rect x="92" y="92" width="20" height="20" rx="3" fill="#2fd18f" opacity="0.35"></rect>
    <rect x="92" y="68" width="20" height="20" rx="3" fill="#3f6a94"></rect>
    <rect x="68" y="92" width="20" height="20" rx="3" fill="#3f6a94"></rect>
  </g><g>
    <rect x="28" y="78" width="14" height="30" rx="2" fill="url(#fm-accent)"></rect>
    <rect x="48" y="64" width="14" height="44" rx="2" fill="url(#fm-accent)"></rect>
    <rect x="68" y="48" width="14" height="60" rx="2" fill="url(#fm-accent)"></rect>
    <rect x="88" y="32" width="14" height="76" rx="2" fill="url(#fm-accent)"></rect>
  </g><polyline points="30,80 55,62 75,46 95,28" fill="none" stroke="#ffffff" stroke-width="4" stroke-linecap="round" stroke-linejoin="round" opacity="0.9"></polyline><circle cx="95" cy="28" r="5" fill="#ffffff"></circle><style>@media (prefers-color-scheme: light) { :root { filter: none; } }
@media (prefers-color-scheme: dark) { :root { filter: none; } }
</style></svg>